<?xml version="1.0" encoding="UTF-8" standalone="no"?>
<svg width="50px" height="50px" viewBox="0 0 50 50" version="1.1" xmlns="http://www.w3.org/2000/svg" xmlns:xlink="http://www.w3.org/1999/xlink">
    <!-- Generator: Sketch 39.1 (31720) - http://www.bohemiancoding.com/sketch -->
    <title>footer-icone-instagram</title>
    <desc>Created with Sketch.</desc>
    <defs></defs>
    <g id="Symbols" stroke="none" stroke-width="1" fill="none" fill-rule="evenodd">
        <g id="Footer" transform="translate(-1135.000000, -40.000000)" fill="#FFFFFF">
            <g id="Social" transform="translate(954.000000, 40.000000)">
                <g id="footer-icone-instagram" transform="translate(181.000000, 0.000000)">
                    <g id="Calque_1">
                        <path d="M25,1 C38.254834,1 49,11.745166 49,25 C49,38.254834 38.254834,49 25,49 C11.745166,49 1,38.254834 1,25 C1,11.745166 11.745166,1 25,1 L25,1 Z M25,1.77635684e-15 C11.1928813,2.22035404e-15 1.69088438e-15,11.1928813 0,25 C-1.69088438e-15,38.8071187 11.1928813,50 25,50 C38.8071187,50 50,38.8071187 50,25 C50,18.3695878 47.366079,12.0107399 42.6776695,7.32233047 C37.9892601,2.63392101 31.6304122,4.05995657e-16 25,0 L25,0 L25,1.77635684e-15 Z" id="Shape"></path>
                        <path d="M33.73,14.25 L16.27,14.25 C15.1654305,14.25 14.27,15.1454305 14.27,16.25 L14.27,33.73 C14.27,34.8345695 15.1654305,35.73 16.27,35.73 L33.73,35.73 C34.8345695,35.73 35.73,34.8345695 35.73,33.73 L35.73,16.27 C35.7353392,15.7361102 35.5269849,15.2222493 35.1513319,14.8428397 C34.7756789,14.4634302 34.2639165,14.2499733 33.73,14.25 L33.73,14.25 Z M29,17.61 C29,17.432305 29.0705891,17.2618878 29.1962385,17.1362385 C29.3218878,17.0105891 29.492305,16.94 29.67,16.94 L32.36,16.94 C32.537695,16.94 32.7081122,17.0105891 32.8337615,17.1362385 C32.9594109,17.2618878 33.03,17.432305 33.03,17.61 L33.03,20.3 C33.03,20.6700308 32.7300308,20.97 32.36,20.97 L29.7,20.97 C29.5171663,20.9781949 29.3389384,20.9112404 29.2067235,20.7846918 C29.0745086,20.6581433 28.9998164,20.4830171 29,20.3 L29,17.61 L29,17.61 Z M25,21 C27.209139,21 29,22.790861 29,25 C29,27.209139 27.209139,29 25,29 C22.790861,29 21,27.209139 21,25 C21,22.790861 22.790861,21 25,21 L25,21 Z M33.06,32.42 L33.06,32.42 C33.06,32.597695 32.9894109,32.7681122 32.8637615,32.8937615 C32.7381122,33.0194109 32.567695,33.09 32.39,33.09 L17.61,33.09 C17.432305,33.09 17.2618878,33.0194109 17.1362385,32.8937615 C17.0105891,32.7681122 16.94,32.597695 16.94,32.42 L16.94,32.42 L16.94,23.66 L18.42,23.66 C17.8764916,26.3304701 18.999619,29.06477 21.2633148,30.5821669 C23.5270106,32.0995638 26.4829894,32.0995638 28.7466852,30.5821669 C31.010381,29.06477 32.1335084,26.3304701 31.59,23.66 L33.07,23.66 L33.07,32.39 L33.06,32.42 Z" id="Shape"></path>
                    </g>
                </g>
            </g>
        </g>
    </g>
</svg>