<?xml version="1.0" encoding="UTF-8" standalone="no"?>
<svg width="50px" height="50px" viewBox="0 0 50 50" version="1.1" xmlns="http://www.w3.org/2000/svg" xmlns:xlink="http://www.w3.org/1999/xlink">
    <!-- Generator: Sketch 39.1 (31720) - http://www.bohemiancoding.com/sketch -->
    <title>footer-icone-facebook</title>
    <desc>Created with Sketch.</desc>
    <defs></defs>
    <g id="Symbols" stroke="none" stroke-width="1" fill="none" fill-rule="evenodd">
        <g id="Footer" transform="translate(-1074.000000, -40.000000)" fill="#FFFFFF">
            <g id="Social" transform="translate(954.000000, 40.000000)">
                <g id="footer-icone-facebook" transform="translate(120.000000, 0.000000)">
                    <g id="Calque_1">
                        <path d="M26.94,18.54 L30.17,18.54 L30.17,14.67 L26.94,14.67 C24.4459545,14.6754996 22.4254996,16.6959545 22.42,19.19 L22.42,21.13 L19.83,21.13 L19.83,25 L22.41,25 L22.41,35.33 L26.29,35.33 L26.29,25 L29.52,25 L30.17,21.13 L26.29,21.13 L26.29,19.19 C26.29,18.8310149 26.5810149,18.54 26.94,18.54 L26.94,18.54 Z" id="Shape"></path>
                        <path d="M25,1 C38.254834,1 49,11.745166 49,25 C49,38.254834 38.254834,49 25,49 C11.745166,49 1,38.254834 1,25 C1,11.745166 11.745166,1 25,1 L25,1 Z M25,1.77635684e-15 C11.1928813,2.22035404e-15 1.69088438e-15,11.1928813 0,25 C-1.69088438e-15,38.8071187 11.1928813,50 25,50 C38.8071187,50 50,38.8071187 50,25 C50,18.3695878 47.366079,12.0107399 42.6776695,7.32233047 C37.9892601,2.63392101 31.6304122,4.05995657e-16 25,0 L25,0 L25,1.77635684e-15 Z" id="Shape"></path>
                    </g>
                </g>
            </g>
        </g>
    </g>
</svg>