<?xml version="1.0" encoding="UTF-8" standalone="no"?>
<svg width="50px" height="50px" viewBox="0 0 50 50" version="1.1" xmlns="http://www.w3.org/2000/svg" xmlns:xlink="http://www.w3.org/1999/xlink">
    <!-- Generator: Sketch 39.1 (31720) - http://www.bohemiancoding.com/sketch -->
    <title>footer-icone-twitter</title>
    <desc>Created with Sketch.</desc>
    <defs></defs>
    <g id="Symbols" stroke="none" stroke-width="1" fill="none" fill-rule="evenodd">
        <g id="Footer" transform="translate(-1014.000000, -40.000000)" fill="#FFFFFF">
            <g id="Social" transform="translate(954.000000, 40.000000)">
                <g id="footer-icone-twitter" transform="translate(60.000000, 0.000000)">
                    <g id="Calque_1">
                        <path d="M25,1 C38.254834,1 49,11.745166 49,25 C49,38.254834 38.254834,49 25,49 C11.745166,49 1,38.254834 1,25 C1,11.745166 11.745166,1 25,1 L25,1 Z M25,1.77635684e-15 C11.1928813,2.22035404e-15 1.69088438e-15,11.1928813 0,25 C-1.69088438e-15,38.8071187 11.1928813,50 25,50 C38.8071187,50 50,38.8071187 50,25 C50,18.3695878 47.366079,12.0107399 42.6776695,7.32233047 C37.9892601,2.63392101 31.6304122,4.05995657e-16 25,0 L25,0 L25,1.77635684e-15 Z" id="Shape"></path>
                        <path d="M33,20 C32.4032653,20.2674902 31.7693742,20.4428218 31.12,20.52 C31.8045277,20.1076946 32.3161926,19.4610071 32.56,18.7 C31.9169405,19.0824648 31.2136134,19.3529752 30.48,19.5 C29.4586452,18.4277867 27.8468268,18.1700428 26.5420407,18.8702858 C25.2372546,19.5705288 24.5610694,21.0561815 24.89,22.5 C22.2489286,22.3688508 19.7878915,21.1219738 18.12,19.07 C17.2494219,20.5657654 17.6865244,22.4802743 19.12,23.45 C18.5978827,23.4331927 18.0872145,23.2926733 17.63,23.04 L17.63,23.04 C17.6275939,24.6028276 18.7281649,25.9502948 20.26,26.26 C19.976666,26.3387007 19.6840596,26.3790602 19.39,26.38 C19.1819413,26.3788458 18.9744191,26.358763 18.77,26.32 C19.2012454,27.6577537 20.4346988,28.5738038 21.84,28.6 C20.4747684,29.6873533 18.7348941,30.1906227 17,30 C19.8751633,31.8376529 23.5236322,31.9611211 26.5164518,30.3220474 C29.5092714,28.6829736 31.3700511,25.542262 31.37,22.13 L31.37,21.7 C32.0110067,21.2358087 32.5631561,20.6599474 33,20 L33,20 L33,20 Z" id="Shape"></path>
                    </g>
                </g>
            </g>
        </g>
    </g>
</svg>