<?xml version="1.0" encoding="UTF-8" standalone="no"?>
<svg width="50px" height="50px" viewBox="0 0 50 50" version="1.1" xmlns="http://www.w3.org/2000/svg" xmlns:xlink="http://www.w3.org/1999/xlink">
    <!-- Generator: Sketch 39.1 (31720) - http://www.bohemiancoding.com/sketch -->
    <title>footer-icone-linkedin</title>
    <desc>Created with Sketch.</desc>
    <defs></defs>
    <g id="Symbols" stroke="none" stroke-width="1" fill="none" fill-rule="evenodd">
        <g id="Footer" transform="translate(-954.000000, -40.000000)" fill="#FFFFFF">
            <g id="Social" transform="translate(954.000000, 40.000000)">
                <g id="footer-icone-linkedin">
                    <g id="Calque_1">
                        <path d="M22.52,21.9 L26,21.9 L26,23.66 L26,23.66 C26.7316238,22.5067742 28.0258301,21.8348559 29.39,21.9 C33.01,21.9 33.68,24.16 33.68,27.09 L33.68,33.09 L30.1,33.09 L30.1,27.79 C30.1,26.53 30.1,24.9 28.24,24.9 C26.38,24.9 26.09,26.28 26.09,27.7 L26.09,33.09 L22.52,33.09 L22.52,21.9 L22.52,21.9 Z" id="Shape"></path>
                        <polygon id="Shape" points="16.32 21.9 20 21.9 20 33.06 16.32 33.06"></polygon>
                        <path d="M20,18.8 C20,19.8272496 19.1672496,20.66 18.14,20.66 C17.1127504,20.66 16.28,19.8272496 16.28,18.8 C16.28,17.7727504 17.1127504,16.94 18.14,16.94 C19.1672496,16.94 20,17.7727504 20,18.8 L20,18.8 Z" id="Shape"></path>
                        <path d="M25,1 C38.254834,1 49,11.745166 49,25 C49,38.254834 38.254834,49 25,49 C11.745166,49 1,38.254834 1,25 C1,11.745166 11.745166,1 25,1 L25,1 Z M25,1.77635684e-15 C11.1928813,2.22035404e-15 1.69088438e-15,11.1928813 0,25 C-1.69088438e-15,38.8071187 11.1928813,50 25,50 C38.8071187,50 50,38.8071187 50,25 C50,18.3695878 47.366079,12.0107399 42.6776695,7.32233047 C37.9892601,2.63392101 31.6304122,4.05995657e-16 25,0 L25,0 L25,1.77635684e-15 Z" id="Shape"></path>
                    </g>
                </g>
            </g>
        </g>
    </g>
</svg>