<svg id="f517f71f-cc0b-4901-9914-b1567f9596f7" data-name="Calque 1" xmlns="http://www.w3.org/2000/svg" viewBox="0 0 53.8 96.44"><title>IWS_logotype-blanc</title><path d="M1756,1115.54a0.69,0.69,0,0,1-.56-0.31,4.2,4.2,0,0,1-.05-3.05,7,7,0,0,0,.18-1.9,5.14,5.14,0,0,1,.3-2.17,7.33,7.33,0,0,0-.15-4.64,10.94,10.94,0,0,1-.19-5.69,21.79,21.79,0,0,0,0-4c-0.05-.24-0.09-0.45-0.12-0.65-0.12-.79-0.24-1.53-1.76-4a18.33,18.33,0,0,1-2-5,16.81,16.81,0,0,1-4,.88,18.19,18.19,0,0,1-2.05.13,36,36,0,0,1-6.87-1c-3.33-.66-6-1.28-6.45-1.38a5.67,5.67,0,0,0-3.91,1.91,47.33,47.33,0,0,0-3.74,8.19l-0.16.64a16,16,0,0,1,.22,3.23c-0.07.93-.09,1.67-0.1,2a7.3,7.3,0,0,1,1.88,1.35,14.82,14.82,0,0,0,1.66,1.81l0.33,0.25a5.75,5.75,0,0,1,1.7,1.69,20.75,20.75,0,0,1,1.52,4,2.1,2.1,0,0,1-.4,1.53,0.78,0.78,0,0,1-.59.28h0a2.88,2.88,0,0,1-1.87-2,3.08,3.08,0,0,1,.15-0.81,37.33,37.33,0,0,0-4.88-4.25,3.51,3.51,0,0,0,.08,1.23,31.31,31.31,0,0,1,.85,6c0,0.37,0,.76,0,1.13,0,1,0,2-.59,2.5a6.46,6.46,0,0,1-1.37.83,0.4,0.4,0,0,1-.47-0.13c-0.07-.09-0.67-1-0.95-3.74-1-1-.89-3-0.71-4.44,0.14-1.08.44-4.32,0.53-5.21-0.63-.47-2.38-2-1.72-3.36a4.22,4.22,0,0,1,.45-0.73,3.09,3.09,0,0,0,.26-0.4l1.09-2.13a32.23,32.23,0,0,0,.41-4c0-1.58-.21-8.83-0.32-10,0-.05-0.66-6-1.13-7.49s-1-5-1.06-5.35a36.49,36.49,0,0,1-1.37-6.5,59.05,59.05,0,0,1-.13-8.26,20.79,20.79,0,0,1,.45-2.89,4.51,4.51,0,0,1-1,.3h0l-0.33,0a7.53,7.53,0,0,1-1.18.11,4,4,0,0,1-1.34-.22,2.28,2.28,0,0,1-1.15-1.22,2.12,2.12,0,0,1-.14-1.64,4.15,4.15,0,0,1,.86-1.38,7,7,0,0,0,.53-0.67l0.11-.15c0.53-.76,2.13-3.07,1.89-4.3a0.74,0.74,0,0,0-.3-0.49,1.2,1.2,0,0,0-.76,0,2.27,2.27,0,0,1-.58.1l-0.19,0a1.32,1.32,0,0,1-.81-0.85,6,6,0,0,0-1.17-1.61c-0.55-.53-1.45-1.5-1.22-2.08a0.52,0.52,0,0,1,.49-0.32,1,1,0,0,1,.41.11c0.18,0.08.54,0.28,1,.56a24.71,24.71,0,0,0,3.78,1.83,7.63,7.63,0,0,0,.87-0.58,8.49,8.49,0,0,0-1.45-4.3c-1.24-1.74-1.82-3.72-1.43-4.92a1.71,1.71,0,0,1,1.1-1.14,18.33,18.33,0,0,0,2.35-.94l0.06,0,3.14-1a0.56,0.56,0,0,1,0-.21,0.68,0.68,0,0,1,.58-0.54c0.32-.09.63-0.16,0.87-0.2a1.25,1.25,0,0,1,.08-0.82,0.74,0.74,0,0,1,.53-0.37l0.79-.15a1.45,1.45,0,0,1,.81-1.32l0.6-.21a0.36,0.36,0,0,0,.22-0.19,0.86,0.86,0,0,1,.28-0.69,2,2,0,0,1,1.15-1.15h0a0.44,0.44,0,0,1,.39.23c0.08,0.15.21,0.38-.51,2.1a19.51,19.51,0,0,1-1.26,2.52,4.72,4.72,0,0,1-1.3,1.43l-6.84,3.87a1.57,1.57,0,0,1,.56,1,0.67,0.67,0,0,1-.42.66h0a0.77,0.77,0,0,0,0,.15c0,0.15.09,0.19,0.43,0.26a0.86,0.86,0,0,1,.78.62,1.81,1.81,0,0,1-.23,1l0,0.09h0.11a1,1,0,0,1,1.06,1,0.41,0.41,0,0,1,0,.08l-0.17,1.28,0.34,0a0.92,0.92,0,0,1,1,.5,2.19,2.19,0,0,1-.38,1.36,4.54,4.54,0,0,1,.82,0,10.63,10.63,0,0,1,1.16.22,2.92,2.92,0,0,1,1.09-1.42,8.46,8.46,0,0,1,1.25-.5l0-.1,0-.11a1.1,1.1,0,0,1,0-1,0.75,0.75,0,0,1,.65-0.29c0.33,0,.75,0,1.07,0a1,1,0,0,1,.12-0.71,0.61,0.61,0,0,1,.51-0.26,7.76,7.76,0,0,1,1.48.26,0.75,0.75,0,0,1,0-.62,0.6,0.6,0,0,1,.58-0.33h0.14a8,8,0,0,1,1.95.62h0.31a0.85,0.85,0,0,1,.09-0.6,0.51,0.51,0,0,1,.43-0.22h0a7.9,7.9,0,0,1,1.54.5,1,1,0,0,1,.78-0.75h0a2.77,2.77,0,0,1,.52.08,1.85,1.85,0,0,1,.14-1l0.35-.56a1.75,1.75,0,0,1-.74-0.92,13.8,13.8,0,0,0-1-2.22c-0.08-.14-2-3.47-0.83-4.57a0.4,0.4,0,0,1,.67.28,4.42,4.42,0,0,0,.68,2.14,43.65,43.65,0,0,1,2.19,3.81c0.34,0.59,1.42,2.55,1.3,3.36s-0.42,2.83-5.21,2.83h-0.3c-3.51,0-4.37.86-5.2,1.68-0.18.18-.36,0.36-0.57,0.54-0.82.69-1.57,1.35-1.94,1.69a3.23,3.23,0,0,1,.34.75,1.17,1.17,0,0,0,.52.07,12.2,12.2,0,0,0,1.63-.17l1.06-.17c1.32-.21,2.21-0.35,2.49-0.35a0.42,0.42,0,0,1,.44.28,0.41,0.41,0,0,1-.15.45,19.53,19.53,0,0,0-2.12,1.87c-0.92,1.1-1.69,1.63-2.36,1.63a1.18,1.18,0,0,1-.28,0,1.21,1.21,0,0,0-.27,0c-0.12,0-.2,0-0.38.65-0.08.28-.15,0.49-0.21,0.68a2.88,2.88,0,0,0-.19.78c0,0.61,0,5,0,5s0,0,0,0c-0.05,1.6-.17,5.9-0.09,6.57a5.1,5.1,0,0,0,2.5,3,49.7,49.7,0,0,0,5.33.46c3,0.18,6.37.39,8.46,0.73a86.34,86.34,0,0,0,12.82,1.31h0a22.44,22.44,0,0,0,2.41-.11c0.64-.07,1.2-0.1,1.66-0.12a6.43,6.43,0,0,0,.92-0.08,2.45,2.45,0,0,1,1.24-.3,2.28,2.28,0,0,1,1.88.76,5.9,5.9,0,0,1,.38,1,16.66,16.66,0,0,1,1.31,2.09c0.73,1.49.63,5.6,0,7.15a24.56,24.56,0,0,0-.72,4.32,31.17,31.17,0,0,1-.51,3.41c0,0.17-.09.32-0.14,0.48-0.25.77-.59,1.84-0.65,6a84.58,84.58,0,0,1-1.38,8.46,3.51,3.51,0,0,0-.12.85,14,14,0,0,1,.64,2,34.44,34.44,0,0,1,.46,5.13c0,0.82,0,1.54,0,1.76s0.3,1,.45,1.72a11.85,11.85,0,0,1,.2,1.83,6.12,6.12,0,0,1,.06,1.54,9,9,0,0,1-.54,1.26c0.07,0.28.23,0.9,0.3,1.35a1.38,1.38,0,0,1-.39,1.08,2,2,0,0,1-1.38.75H1761a1.93,1.93,0,0,1-1.38-.86,1.22,1.22,0,0,1-.14-1.11,9.6,9.6,0,0,0,.28-2.61,6.17,6.17,0,0,1,.12-1.44,4.91,4.91,0,0,0,0-1.62,8.64,8.64,0,0,1-.08-0.88,10.26,10.26,0,0,0-.19-1.2,7.73,7.73,0,0,1-.25-2.65,2.76,2.76,0,0,0-.39-1.41,1.82,1.82,0,0,1-.15.44c-0.27.52,0.19,1.82,0.41,2.45l0.13,0.38a8.46,8.46,0,0,1,0,3c0,0.27-.07.63-0.1,1-0.1,1.28-.17,1.83-0.43,2.08a1.44,1.44,0,0,0-.31,1,5.51,5.51,0,0,1-.22,1.23c-0.07.21-.11,0.44-0.16,0.65a2.37,2.37,0,0,1-2,2.25H1756Z" transform="translate(-1711.51 -1019.09)" fill="#fff"/></svg>