<svg width="24" height="24" viewBox="0 0 24 24" fill="none" xmlns="http://www.w3.org/2000/svg">
<path fill-rule="evenodd" clip-rule="evenodd" d="M5.75 3H17.75C19.2688 3 20.5 4.23122 20.5 5.75V17.75C20.5 19.2688 19.2688 20.5 17.75 20.5H5.75C4.23122 20.5 3 19.2688 3 17.75V5.75C3 4.23122 4.23122 3 5.75 3ZM17.75 4.5H5.75C5.05964 4.5 4.5 5.05964 4.5 5.75V17.75C4.5 18.4404 5.05964 19 5.75 19H17.75C18.4404 19 19 18.4404 19 17.75V5.75C19 5.05964 18.4404 4.5 17.75 4.5ZM7.75 10C8.1297 10 8.44349 10.2822 8.49315 10.6482L8.5 10.75V15.75C8.5 16.1642 8.16421 16.5 7.75 16.5C7.3703 16.5 7.05651 16.2178 7.00685 15.8518L7 15.75V10.75C7 10.3358 7.33579 10 7.75 10ZM8.49315 7.64823C8.44349 7.28215 8.1297 7 7.75 7C7.33579 7 7 7.33579 7 7.75L7.00685 7.86177C7.05651 8.22785 7.3703 8.51 7.75 8.51C8.16421 8.51 8.5 8.17421 8.5 7.76L8.49315 7.64823ZM12.3902 10.3592C12.2585 10.1437 12.021 10 11.75 10C11.3358 10 11 10.3358 11 10.75V12.75V15.75L11.0068 15.8518C11.0565 16.2178 11.3703 16.5 11.75 16.5C12.1642 16.5 12.5 16.1642 12.5 15.75V12.75L12.5065 12.6222C12.5705 11.9919 13.1028 11.5 13.75 11.5C14.4404 11.5 15 12.0596 15 12.75V15.75L15.0068 15.8518C15.0565 16.2178 15.3703 16.5 15.75 16.5C16.1642 16.5 16.5 16.1642 16.5 15.75V12.75L16.495 12.5825C16.4084 11.1417 15.2125 10 13.75 10C13.2554 10 12.7913 10.1306 12.3902 10.3592Z" fill="#212121"/>
</svg>
