<svg id="1bdc2dda-a589-4f9b-a5d6-565fc84eebe4" data-name="Calque 1" xmlns="http://www.w3.org/2000/svg" viewBox="0 0 72.51 67.46"><title>logo-IWS-blanc-shape</title><path d="M1865.74,773.62l0.08,0.55H1865v-3.82l-0.11-.66h0.83v3.93Z" transform="translate(-1864.92 -706.82)" fill="#fff"/><path d="M1868.86,771.56l-0.24-.43v2.49l0.08,0.55H1868v-3.83l-0.1-.65,0.49,0,2.29,2.89,2-2.9h0.46v3.93l0.08,0.55h-0.8v-3l-0.24.41-1.57,2.18Z" transform="translate(-1864.92 -706.82)" fill="#fff"/><path d="M1876.35,769.69a1.46,1.46,0,0,1,1.66,1.37,1.74,1.74,0,0,1-1.92,1.48h-0.35v1.09l0.08,0.55H1875v-3.82l-0.11-.66h1.43Zm-0.13,2.28a1,1,0,0,0,1-.91,0.89,0.89,0,0,0-1-.8h-0.47V772h0.47Z" transform="translate(-1864.92 -706.82)" fill="#fff"/><path d="M1880.55,769.69l0.43-.09,1.54,3.78,0.41,0.79h-0.84l-0.48-1.16h-1.84l-0.5,1.16h-0.68Zm-0.56,2.74h1.39L1880.8,771l-0.08-.25-0.09.25Z" transform="translate(-1864.92 -706.82)" fill="#fff"/><path d="M1884.33,770.34l-0.11-.66H1885v3.9h2l-0.17.58h-2.52v-3.82Z" transform="translate(-1864.92 -706.82)" fill="#fff"/><path d="M1889.43,769.69l0.43-.09,1.54,3.78,0.41,0.79H1891l-0.48-1.16h-1.84l-0.5,1.16h-0.67Zm-0.56,2.74h1.39l-0.59-1.46-0.08-.25-0.09.25Z" transform="translate(-1864.92 -706.82)" fill="#fff"/><path d="M1897.36,774.28l-0.46-.08L1896,772l-0.13-.35-0.12.4-1,2.27-0.44-.08-1.52-3.72h0l-0.48-.79h1l1.2,3,0.14,0.5,0.19-.53,0.74-1.74-0.52-1.22h0.84l1.2,3,0.14,0.5,0.19-.53,1.27-3h0.72Z" transform="translate(-1864.92 -706.82)" fill="#fff"/><path d="M1900.74,770.34l-0.11-.66h2.64v0.57h-1.81v1.33h1.6l-0.18.57h-1.43v1.45h1.91l-0.18.57h-2.46v-3.82Z" transform="translate(-1864.92 -706.82)" fill="#fff"/><path d="M1906.37,769.65c0.9,0,1.54.38,1.54,1.07a1.43,1.43,0,0,1-.53.91,1.11,1.11,0,0,1,.82,1.11c0,0.73-.5,1.42-1.88,1.42h-1.17v-3.82l-0.11-.66Zm-0.51,1.82h0.53a5.24,5.24,0,0,1,.55,0,1,1,0,0,0,.27-0.65c0-.45-0.31-0.65-1-0.65l-0.3,0v1.24Zm0,2.14h0.53a0.85,0.85,0,0,0,1-.8c0-.59-0.4-0.78-1.17-0.78h-0.41v1.58Z" transform="translate(-1864.92 -706.82)" fill="#fff"/><path d="M1909.5,773.75l0.09-.65a2,2,0,0,0,1.31.61,0.69,0.69,0,0,0,.78-0.68c0-.85-2.16-0.9-2.16-2.13a1.38,1.38,0,0,1,1.49-1.3,2.56,2.56,0,0,1,1.28.34l-0.23.59a1.9,1.9,0,0,0-1.08-.35,0.62,0.62,0,0,0-.71.55c0,0.94,2.14.82,2.14,2.21a1.35,1.35,0,0,1-1.53,1.34,1.92,1.92,0,0,1-1.37-.51v0Z" transform="translate(-1864.92 -706.82)" fill="#fff"/><path d="M1913.27,769.69h4v0.57h-1.65v3.36l0.08,0.55h-0.8v-3.91h-1.6v-0.57Z" transform="translate(-1864.92 -706.82)" fill="#fff"/><path d="M1921.86,770.34l-0.1-.65h0.78v2.7a1.89,1.89,0,0,1-2.07,1.89,1.71,1.71,0,0,1-1.86-1.72v-2.21l-0.11-.66h0.83v2.82a1.21,1.21,0,0,0,1.27,1.22,1.23,1.23,0,0,0,1.26-1.27v-2.12Z" transform="translate(-1864.92 -706.82)" fill="#fff"/><path d="M1926.61,769.69a2,2,0,0,1,2.11,2.21,2.21,2.21,0,0,1-2.34,2.27h-1.58v-3.82l-0.11-.66h1.92Zm-1.09.55v3.38h1a1.55,1.55,0,0,0,1.47-1.68,1.57,1.57,0,0,0-1.47-1.7h-1Z" transform="translate(-1864.92 -706.82)" fill="#fff"/><path d="M1931.18,773.62l0.09,0.55h-0.8v-3.82l-0.11-.66h0.83v3.93Z" transform="translate(-1864.92 -706.82)" fill="#fff"/><path d="M1937.43,771.9a2.31,2.31,0,0,1-2.3,2.38,2.14,2.14,0,0,1-2.2-2.3,2.31,2.31,0,0,1,2.3-2.38A2.08,2.08,0,0,1,1937.43,771.9Zm-2.24,1.83a1.82,1.82,0,1,0-1.48-1.79A1.6,1.6,0,0,0,1935.18,773.73Z" transform="translate(-1864.92 -706.82)" fill="#fff"/><path d="M1911.56,763.78a0.41,0.41,0,0,1-.33-0.18,2.48,2.48,0,0,1,0-1.8,4.16,4.16,0,0,0,.11-1.12,3,3,0,0,1,.18-1.28,4.33,4.33,0,0,0-.09-2.74,6.46,6.46,0,0,1-.11-3.36,12.87,12.87,0,0,0,0-2.37c0-.14-0.05-0.27-0.07-0.38a5.37,5.37,0,0,0-1-2.34,10.83,10.83,0,0,1-1.17-2.93,9.93,9.93,0,0,1-2.34.52,10.75,10.75,0,0,1-1.21.08,21.25,21.25,0,0,1-4.06-.57c-2-.39-3.56-0.76-3.81-0.82a3.35,3.35,0,0,0-2.31,1.13,28,28,0,0,0-2.21,4.84l-0.1.38a9.46,9.46,0,0,1,.13,1.91c0,0.55-.05,1-0.06,1.2a4.31,4.31,0,0,1,1.11.8,8.76,8.76,0,0,0,1,1.07l0.19,0.15a3.39,3.39,0,0,1,1,1,12.26,12.26,0,0,1,.9,2.36,1.24,1.24,0,0,1-.24.9,0.46,0.46,0,0,1-.35.16h0a1.7,1.7,0,0,1-1.11-1.19,1.82,1.82,0,0,1,.09-0.48,22.05,22.05,0,0,0-2.88-2.51,2.07,2.07,0,0,0,0,.73,18.49,18.49,0,0,1,.5,3.54c0,0.22,0,.45,0,0.67a1.81,1.81,0,0,1-.35,1.48,3.82,3.82,0,0,1-.81.49,0.23,0.23,0,0,1-.28-0.07,4.75,4.75,0,0,1-.56-2.21c-0.6-.58-0.53-1.77-0.42-2.62,0.08-.64.26-2.55,0.31-3.08-0.37-.28-1.41-1.15-1-2a2.49,2.49,0,0,1,.26-0.43,1.83,1.83,0,0,0,.15-0.23l0.64-1.26a19,19,0,0,0,.24-2.38c0-.93-0.13-5.22-0.19-5.9,0,0-.39-3.53-0.67-4.42s-0.59-2.93-.63-3.16a21.55,21.55,0,0,1-.81-3.84,34.88,34.88,0,0,1-.07-4.88,12.28,12.28,0,0,1,.27-1.71,2.66,2.66,0,0,1-.61.18h0l-0.19,0a4.45,4.45,0,0,1-.7.07,2.38,2.38,0,0,1-.79-0.13,1.35,1.35,0,0,1-.68-0.72,1.25,1.25,0,0,1-.08-1,2.45,2.45,0,0,1,.51-0.82,4.15,4.15,0,0,0,.31-0.4l0.06-.09c0.31-.45,1.26-1.82,1.12-2.54a0.44,0.44,0,0,0-.18-0.29,0.71,0.71,0,0,0-.45,0,1.34,1.34,0,0,1-.34.06h-0.11a0.78,0.78,0,0,1-.48-0.5,3.52,3.52,0,0,0-.69-1,1.68,1.68,0,0,1-.72-1.23,0.31,0.31,0,0,1,.29-0.19,0.57,0.57,0,0,1,.24.06l0.62,0.33a14.6,14.6,0,0,0,2.23,1.08,4.51,4.51,0,0,0,.51-0.34,5,5,0,0,0-.86-2.54,3.75,3.75,0,0,1-.85-2.91,1,1,0,0,1,.65-0.67,10.83,10.83,0,0,0,1.39-.56h0l1.86-.62a0.33,0.33,0,0,1,0-.13,0.4,0.4,0,0,1,.34-0.32l0.52-.12a0.74,0.74,0,0,1,0-.48,0.44,0.44,0,0,1,.32-0.22l0.47-.09a0.85,0.85,0,0,1,.48-0.78l0.35-.12a0.21,0.21,0,0,0,.13-0.11,0.51,0.51,0,0,1,.17-0.41,1.21,1.21,0,0,1,.68-0.68h0a0.26,0.26,0,0,1,.23.13c0,0.09.12,0.22-.3,1.24a11.52,11.52,0,0,1-.75,1.49,2.79,2.79,0,0,1-.77.85l-4,2.29a0.93,0.93,0,0,1,.33.57,0.4,0.4,0,0,1-.25.39h0a0.46,0.46,0,0,0,0,.09c0,0.09.05,0.11,0.25,0.16a0.51,0.51,0,0,1,.46.36,1.07,1.07,0,0,1-.14.59l0,0.05H1890a0.61,0.61,0,0,1,.63.57,0.24,0.24,0,0,1,0,0l-0.1.75h0.2a0.54,0.54,0,0,1,.59.29,1.3,1.3,0,0,1-.23.8,2.68,2.68,0,0,1,.49,0,6.28,6.28,0,0,1,.68.13,1.72,1.72,0,0,1,.64-0.84,5,5,0,0,1,.74-0.29v-0.06l0-.07a0.65,0.65,0,0,1,0-.58,0.44,0.44,0,0,1,.38-0.17l0.63,0a0.61,0.61,0,0,1,.07-0.42,0.36,0.36,0,0,1,.3-0.15,4.58,4.58,0,0,1,.87.15,0.44,0.44,0,0,1,0-.37,0.35,0.35,0,0,1,.35-0.19h0.08a4.71,4.71,0,0,1,1.15.36h0.18a0.5,0.5,0,0,1,.05-0.35,0.3,0.3,0,0,1,.25-0.13h0a4.67,4.67,0,0,1,.91.3,0.56,0.56,0,0,1,.46-0.44h0a1.64,1.64,0,0,1,.31,0,1.09,1.09,0,0,1,.08-0.61l0.21-.33a1,1,0,0,1-.44-0.54,8.15,8.15,0,0,0-.56-1.31c0-.08-1.18-2-0.49-2.7a0.23,0.23,0,0,1,.39.16,2.61,2.61,0,0,0,.4,1.26,25.78,25.78,0,0,1,1.29,2.25,5.07,5.07,0,0,1,.77,2c-0.07.46-.25,1.67-3.08,1.67h-0.18c-2.07,0-2.58.51-3.07,1-0.11.1-.21,0.21-0.34,0.32-0.48.41-.92,0.8-1.15,1a1.91,1.91,0,0,1,.2.44,0.69,0.69,0,0,0,.31,0,7.21,7.21,0,0,0,1-.1l0.63-.1c0.78-.12,1.3-0.2,1.47-0.2a0.25,0.25,0,0,1,.26.17,0.24,0.24,0,0,1-.09.27,11.53,11.53,0,0,0-1.25,1.1,2.12,2.12,0,0,1-1.4,1l-0.17,0-0.16,0c-0.07,0-.12,0-0.23.39,0,0.16-.09.29-0.13,0.4a1.7,1.7,0,0,0-.11.46c0,0.36,0,2.94,0,3h0c0,0.94-.1,3.48-0.05,3.88a3,3,0,0,0,1.47,1.79,29.36,29.36,0,0,0,3.15.27c1.76,0.11,3.76.23,5,.43a51,51,0,0,0,7.57.77h0a13.25,13.25,0,0,0,1.43-.07c0.38,0,.71-0.06,1-0.07a3.8,3.8,0,0,0,.54,0,1.44,1.44,0,0,1,.73-0.18,1.35,1.35,0,0,1,1.11.45,3.49,3.49,0,0,1,.23.56,9.84,9.84,0,0,1,.78,1.24,7.68,7.68,0,0,1,0,4.23,14.5,14.5,0,0,0-.43,2.55,18.41,18.41,0,0,1-.3,2c0,0.1-.05.19-0.08,0.28a10.8,10.8,0,0,0-.38,3.53,50,50,0,0,1-.81,5,2.07,2.07,0,0,0-.07.5,8.26,8.26,0,0,1,.38,1.19,20.34,20.34,0,0,1,.27,3c0,0.48,0,.91,0,1s0.18,0.59.27,1a7,7,0,0,1,.12,1.08,3.62,3.62,0,0,1,0,.91,5.31,5.31,0,0,1-.32.75c0,0.17.13,0.53,0.18,0.8a0.82,0.82,0,0,1-.23.64,1.19,1.19,0,0,1-.81.44h0a1.14,1.14,0,0,1-.82-0.51,0.72,0.72,0,0,1-.08-0.65,5.67,5.67,0,0,0,.16-1.54,3.64,3.64,0,0,1,.07-0.85,2.9,2.9,0,0,0,0-1,5.1,5.1,0,0,1,0-.52,6.06,6.06,0,0,0-.11-0.71,4.57,4.57,0,0,1-.15-1.57,1.63,1.63,0,0,0-.23-0.83,1.07,1.07,0,0,1-.09.26,2.63,2.63,0,0,0,.24,1.45l0.08,0.23a5,5,0,0,1,0,1.76c0,0.16,0,.37-0.06.59a2.26,2.26,0,0,1-.25,1.23,0.85,0.85,0,0,0-.18.59,3.26,3.26,0,0,1-.13.73c0,0.12-.07.26-0.1,0.39a1.4,1.4,0,0,1-1.16,1.33h-0.08Z" transform="translate(-1864.92 -706.82)" fill="#fff"/></svg>