<svg width="20" height="20" viewBox="0 0 20 20" fill="none" xmlns="http://www.w3.org/2000/svg">
<path fill-rule="evenodd" clip-rule="evenodd" d="M16.1651 2.59506L1.80487 7.779L7.92276 10.8375L16.1651 2.59506ZM8.98337 11.8982L12.0389 18.012L17.2213 3.66026L8.98337 11.8982ZM19.7653 1.03382L13.2527 19.0624C13.0409 19.5246 12.5792 19.8209 12.0709 19.8209C11.6087 19.8209 11.1852 19.576 10.9611 19.2015L10.9001 19.0854L7.51187 12.308L0.758423 8.93182C0.338307 8.7393 0.0552424 8.34022 0.00724814 7.88733L0 7.75C0 7.28787 0.244872 6.86429 0.67996 6.61425L0.816138 6.54458L18.7873 0.055477C18.8349 0.0360622 18.8841 0.0217433 18.934 0.0125202L18.9348 0.0123257L18.9356 0.0122273C18.9662 0.00664405 18.9971 0.00297288 19.0281 0.00121378L19.031 0.000865916H19.0347C19.0588 -0.000288639 19.0829 -0.000288639 19.107 0.000865916H19.1107L19.1131 0.00118304C19.1515 0.00333593 19.1898 0.00842716 19.2275 0.0164567L19.2276 0.0164584L19.2276 0.0164632C19.3248 0.0371457 19.4188 0.0773157 19.5032 0.136973L19.504 0.137501L19.5049 0.138185C19.5302 0.156159 19.5546 0.175887 19.5779 0.197368L19.5802 0.199173L19.5839 0.20289C19.5897 0.208373 19.5955 0.213966 19.6012 0.21967C19.6069 0.225372 19.6125 0.231143 19.618 0.236981L19.6217 0.240705L19.6235 0.242939C19.645 0.266312 19.6647 0.290718 19.6827 0.315987L19.6834 0.316839L19.6839 0.317711C19.7476 0.407821 19.7891 0.508832 19.8083 0.61314L19.8085 0.613918L19.8086 0.614754C19.8142 0.645357 19.8179 0.676241 19.8197 0.707213L19.82 0.710136V0.713861C19.8212 0.73794 19.8212 0.762064 19.82 0.786143V0.789864L19.8197 0.79224C19.8175 0.830642 19.8124 0.868919 19.8044 0.906687C19.7952 0.949904 19.7822 0.992459 19.7653 1.03382Z" fill="#212121"/>
</svg>
